<svg width="130" height="53" viewBox="0 0 130 53" fill="none" xmlns="http://www.w3.org/2000/svg">
<g clip-path="url(#clip0_81_1459)">
<g clip-path="url(#clip1_81_1459)">
<path d="M23.6664 8.34656C23.1222 7.44752 22.168 6.82609 21.0557 6.78381C19.9121 6.73968 18.8954 7.29308 18.2905 8.15535C18.206 8.2767 18.0368 8.29692 17.9265 8.19948C17.1176 7.49348 15.9758 7.16071 14.7642 7.47693C13.2805 7.86486 12.2694 9.24009 12.2694 10.7753C12.2694 10.9205 12.1517 11.0253 12.0193 11.0253C11.9899 11.0253 11.9623 11.0198 11.9329 11.0106C11.3813 10.8212 10.782 10.7367 10.1569 10.7826C8.1823 10.9279 6.51659 12.395 6.11946 14.3365C6.0018 14.9193 6.00364 15.4856 6.09924 16.0188C6.12314 16.1493 6.03305 16.2725 5.90252 16.3001C3.28996 16.8498 1.32825 19.1663 1.32825 21.9443C1.32825 23.7553 2.16478 25.3732 3.47198 26.4304C3.59332 26.5278 3.59332 26.7117 3.47198 26.8091C2.83401 27.3239 2.30635 27.9747 1.93496 28.7175C1.54703 29.4934 1.32825 30.3685 1.32825 31.2951C1.32825 34.0731 3.28996 36.3897 5.90252 36.9394C6.03305 36.967 6.12314 37.0902 6.09924 37.2207C6.00364 37.7539 6.0018 38.3202 6.11946 38.903C6.51659 40.8445 8.1823 42.3116 10.1569 42.4569C10.8096 42.5047 11.4365 42.4091 12.0064 42.2031C12.1351 42.1553 12.2694 42.2491 12.2694 42.3852V42.3888C12.2694 44.2807 13.777 45.8747 15.6688 45.882C16.5329 45.8857 17.3235 45.5658 17.9265 45.04C18.0368 44.9426 18.206 44.9628 18.2905 45.0841C18.8954 45.9464 19.9121 46.4998 21.0557 46.4557C22.2599 46.4097 23.2766 45.6853 23.7914 44.6668C24.0325 44.1949 24.158 43.6725 24.1573 43.1426V10.0968C24.1573 9.46255 23.979 8.85951 23.6664 8.34656Z" fill="#EF59A3"/>
<path d="M44.843 26.8091C44.8147 26.7864 44.7918 26.7575 44.776 26.7248C44.7603 26.692 44.7521 26.6561 44.7521 26.6197C44.7521 26.5834 44.7603 26.5475 44.776 26.5147C44.7918 26.4819 44.8147 26.4531 44.843 26.4304C46.1502 25.3732 46.9868 23.7553 46.9868 21.9443C46.9868 19.1663 45.0251 16.8498 42.4125 16.3001C42.282 16.2725 42.1919 16.1493 42.2158 16.0188C42.3114 15.4856 42.3132 14.9193 42.1956 14.3365C41.7984 12.395 40.1327 10.9279 38.1581 10.7826C37.5055 10.7348 36.8785 10.8304 36.3086 11.0363C36.1799 11.0841 36.0457 10.9904 36.0457 10.8543V10.8506C36.0457 8.95879 34.5381 7.36478 32.6462 7.35743C31.7821 7.35375 30.9915 7.67366 30.3885 8.19948C30.2782 8.29692 30.109 8.2767 30.0245 8.15535C29.4196 7.29308 28.4029 6.73968 27.2593 6.78381C25.5109 6.84999 24.1577 8.3484 24.1577 10.0968V43.1426C24.1577 44.8911 25.5109 46.3895 27.2593 46.4557C28.4029 46.4998 29.4196 45.9464 30.0245 45.0841C30.109 44.9628 30.2782 44.9426 30.3885 45.04C31.1975 45.746 32.3392 46.0788 33.5508 45.7625C35.0345 45.3746 36.0457 43.9994 36.0457 42.4642C36.0457 42.319 36.1633 42.2142 36.2957 42.2142C36.3251 42.2142 36.3527 42.2197 36.3821 42.2289C36.9337 42.4182 37.533 42.5028 38.1581 42.4569C40.1327 42.3116 41.7984 40.8445 42.1956 38.903C42.3132 38.3202 42.3114 37.7539 42.2158 37.2207C42.1919 37.0902 42.282 36.967 42.4125 36.9394C45.0251 36.3897 46.9868 34.0731 46.9868 31.2951C46.9868 30.3685 46.768 29.4934 46.3801 28.7175C46.0102 27.9787 45.486 27.3279 44.843 26.8091Z" fill="#EF59A3"/>
<path d="M23.6664 8.34656C23.1222 7.44752 22.168 6.82609 21.0557 6.78381C19.9121 6.73968 18.8954 7.29308 18.2905 8.15535C18.206 8.2767 18.0368 8.29692 17.9265 8.19948C17.1176 7.49348 15.9758 7.16071 14.7642 7.47693C13.2805 7.86486 12.2694 9.24009 12.2694 10.7753C12.2694 10.9205 12.1517 11.0253 12.0193 11.0253C11.9899 11.0253 11.9623 11.0198 11.9329 11.0106C11.3813 10.8212 10.782 10.7367 10.1569 10.7826C8.1823 10.9279 6.51659 12.395 6.11946 14.3365C6.0018 14.9193 6.00364 15.4856 6.09924 16.0188C6.12314 16.1493 6.03305 16.2725 5.90252 16.3001C3.28996 16.8498 1.32825 19.1663 1.32825 21.9443C1.32825 23.7553 2.16478 25.3732 3.47198 26.4304C3.59332 26.5278 3.59332 26.7117 3.47198 26.8091C2.83401 27.3239 2.30635 27.9747 1.93496 28.7175C2.71082 30.2674 4.16143 31.4183 5.90252 31.7842C6.03305 31.8118 6.12314 31.9349 6.09924 32.0655C6.00364 32.5986 6.0018 33.1649 6.11946 33.7477C6.51659 35.6892 8.1823 37.1564 10.1569 37.3016C10.8096 37.3494 11.4365 37.2538 12.0064 37.0479C12.1351 37.0001 12.2694 37.0939 12.2694 37.2299V37.2336C12.2694 39.1254 13.777 40.7194 15.6688 40.7268C16.5329 40.7305 17.3235 40.4106 17.9265 39.8847C18.0368 39.7873 18.206 39.8075 18.2905 39.9289C18.8954 40.7911 19.9121 41.3445 21.0557 41.3004C22.2599 41.2545 23.2766 40.5301 23.7914 39.5115C24.0325 39.0397 24.158 38.5173 24.1573 37.9874V10.0968C24.1573 9.46255 23.979 8.85951 23.6664 8.34656Z" fill="#FF5CAA"/>
<path d="M44.843 26.8091C44.8147 26.7864 44.7918 26.7575 44.776 26.7248C44.7603 26.692 44.7521 26.6561 44.7521 26.6197C44.7521 26.5834 44.7603 26.5475 44.776 26.5147C44.7918 26.4819 44.8147 26.4531 44.843 26.4304C46.1502 25.3732 46.9868 23.7553 46.9868 21.9443C46.9868 19.1663 45.0251 16.8498 42.4125 16.3001C42.282 16.2725 42.1919 16.1493 42.2158 16.0188C42.3114 15.4856 42.3132 14.9193 42.1956 14.3365C41.7984 12.395 40.1327 10.9279 38.1581 10.7826C37.5055 10.7348 36.8785 10.8304 36.3086 11.0363C36.1799 11.0841 36.0457 10.9904 36.0457 10.8543V10.8506C36.0457 8.95879 34.5381 7.36478 32.6462 7.35743C31.7821 7.35375 30.9915 7.67366 30.3885 8.19948C30.2782 8.29692 30.109 8.2767 30.0245 8.15535C29.4196 7.29308 28.4029 6.73968 27.2593 6.78381C25.5109 6.84999 24.1577 8.3484 24.1577 10.0968V37.9874C24.1577 39.7358 25.5109 41.2342 27.2593 41.3004C28.4029 41.3445 29.4196 40.7911 30.0245 39.9289C30.109 39.8075 30.2782 39.7873 30.3885 39.8847C31.1975 40.5907 32.3392 40.9235 33.5508 40.6073C35.0345 40.2194 36.0457 38.8441 36.0457 37.309C36.0457 37.1637 36.1633 37.0589 36.2957 37.0589C36.3251 37.0589 36.3527 37.0644 36.3821 37.0736C36.9337 37.263 37.533 37.3476 38.1581 37.3016C40.1327 37.1564 41.7984 35.6892 42.1956 33.7477C42.3132 33.1649 42.3114 32.5986 42.2158 32.0655C42.1919 31.9349 42.282 31.8118 42.4125 31.7842C44.1536 31.4183 45.6042 30.2674 46.3801 28.7175C46.0102 27.9787 45.486 27.3279 44.843 26.8091Z" fill="#FF5CAA"/>
<path d="M20.4215 19.6438C21.2749 19.6438 21.9668 18.9519 21.9668 18.0985C21.9668 17.2451 21.2749 16.5532 20.4215 16.5532C19.5681 16.5532 18.8762 17.2451 18.8762 18.0985C18.8762 18.9519 19.5681 19.6438 20.4215 19.6438Z" fill="#FBFBFB"/>
<path d="M10.7086 21.62C11.5621 21.62 12.2539 20.9282 12.2539 20.0748C12.2539 19.2213 11.5621 18.5295 10.7086 18.5295C9.85518 18.5295 9.16333 19.2213 9.16333 20.0748C9.16333 20.9282 9.85518 21.62 10.7086 21.62Z" fill="#FBFBFB"/>
<path d="M9.68103 31.215C10.5345 31.215 11.2263 30.5231 11.2263 29.6697C11.2263 28.8163 10.5345 28.1244 9.68103 28.1244C8.82759 28.1244 8.13574 28.8163 8.13574 29.6697C8.13574 30.5231 8.82759 31.215 9.68103 31.215Z" fill="#FBFBFB"/>
<path d="M9.89966 38.1035C10.7531 38.1035 11.4449 37.4117 11.4449 36.5582C11.4449 35.7048 10.7531 35.013 9.89966 35.013C9.04622 35.013 8.35437 35.7048 8.35437 36.5582C8.35437 37.4117 9.04622 38.1035 9.89966 38.1035Z" fill="#FBFBFB"/>
<path d="M20.5463 41.5837C21.3997 41.5837 22.0915 40.8919 22.0915 40.0385C22.0915 39.185 21.3997 38.4932 20.5463 38.4932C19.6928 38.4932 19.001 39.185 19.001 40.0385C19.001 40.8919 19.6928 41.5837 20.5463 41.5837Z" fill="#FBFBFB"/>
<path d="M5.70348 16.3455C5.72554 16.4742 5.63545 16.5955 5.50676 16.6231C4.67206 16.7978 3.90539 17.1545 3.24536 17.649C3.93481 17.0294 4.77318 16.5753 5.70348 16.3455Z" fill="#FF5CAA"/>
<path d="M45.1889 26.621C49.0478 23.3435 47.4668 17.0849 42.5962 15.9652C43.1384 12.4476 39.7935 9.57193 36.4049 10.6179C36.2203 7.49678 32.6438 5.88696 30.2466 7.8393C28.6584 5.743 25.3724 5.96307 24.1564 8.50062C22.9491 5.98127 19.6704 5.72149 18.0663 7.8393C15.7257 5.92869 12.0337 7.40393 11.9039 10.617C8.51714 9.57561 5.17414 12.4472 5.7165 15.9654C0.846415 17.0851 -0.735458 23.3429 3.12381 26.6212C-0.735091 29.8987 0.845863 36.1573 5.7165 37.277C5.17432 40.7946 8.51916 43.6703 11.9078 42.6243C12.0924 45.7443 15.6676 47.3556 18.0661 45.4029C19.6529 47.4975 22.9399 47.2799 24.1562 44.7416C25.3629 47.2595 28.6423 47.5205 30.2464 45.4029C32.5867 47.3133 36.279 45.8385 36.4088 42.6252C39.8174 43.6736 43.1351 40.7726 42.5962 37.2768C47.4663 36.1573 49.048 29.8995 45.1889 26.621ZM10.3406 11.1477V14.7503H6.42655C6.66151 12.7743 8.29357 11.2193 10.3406 11.1477ZM10.7083 18.8973C11.3577 18.8973 11.8859 19.4255 11.8859 20.0749C11.8859 20.7243 11.3577 21.2525 10.7083 21.2525C10.0589 21.2525 9.53072 20.7243 9.53072 20.0749C9.53072 19.4255 10.0589 18.8973 10.7083 18.8973ZM23.7887 43.1432C23.7887 45.9813 20.2143 47.1861 18.5903 44.8736C18.5409 44.803 18.4773 44.7435 18.4034 44.6992C18.3295 44.6548 18.2472 44.6266 18.1616 44.6162C18.0761 44.6058 17.9894 44.6136 17.907 44.639C17.8247 44.6644 17.7487 44.7069 17.6839 44.7636C16.8746 45.4711 15.701 45.7375 14.6062 45.3102V40.4074H18.6688C18.8409 41.2868 19.6164 41.9527 20.5454 41.9527C21.6001 41.9527 22.4584 41.0947 22.4584 40.0397C22.4584 38.9848 21.6003 38.1267 20.5454 38.1267C19.6164 38.1267 18.8407 38.7926 18.6688 39.672H14.6062V33.084H16.7095V35.8234C16.7095 36.3092 17.4449 36.3099 17.4449 35.8234V33.084H23.7617C23.7709 33.084 23.7795 33.082 23.7885 33.0812L23.7887 43.1432ZM19.3678 40.0399C19.3678 39.3905 19.896 38.8623 20.5454 38.8623C21.1947 38.8623 21.723 39.3905 21.723 40.0399C21.723 40.6893 21.1947 41.2175 20.5454 41.2175C19.896 41.2175 19.3678 40.6893 19.3678 40.0399ZM23.7887 24.717C23.7797 24.7163 23.7711 24.7143 23.7619 24.7143H20.7873V19.976C21.6667 19.8039 22.3326 19.0284 22.3326 18.0994C22.3326 17.0446 21.4746 16.1864 20.4196 16.1864C19.3647 16.1864 18.5066 17.0445 18.5066 18.0992C18.5066 19.0282 19.1725 19.8039 20.0519 19.9758V25.082C20.0519 25.1795 20.0907 25.273 20.1596 25.342C20.2286 25.4109 20.3221 25.4497 20.4196 25.4497H23.7619C23.7711 25.4497 23.7797 25.4477 23.7887 25.4469V32.3513C23.7797 32.3506 23.7711 32.3486 23.7619 32.3486H14.2385C14.1409 32.3486 14.0474 32.3873 13.9785 32.4563C13.9095 32.5252 13.8708 32.6188 13.8708 32.7163V36.1911H11.775C11.6029 35.3118 10.8273 34.6458 9.89843 34.6458C8.84366 34.6458 7.98544 35.5039 7.98544 36.5588C7.98544 37.6138 8.84366 38.4718 9.89843 38.4718C10.8274 38.4718 11.6031 37.8059 11.775 36.9265H13.8706V44.896C13.4856 44.6011 13.1739 44.2213 12.9598 43.7861C12.7458 43.351 12.6351 42.8723 12.6364 42.3873C12.6364 42.2037 12.547 42.0312 12.3968 41.9261C11.9225 41.5931 11.6502 42.1978 10.1827 42.0908C7.79644 41.9165 6.02777 39.6959 6.46037 37.2873C6.51902 36.9607 6.30722 36.6508 5.97776 36.5814C1.5822 35.6561 0.142625 29.9758 3.70239 27.0966C3.77336 27.0393 3.83061 26.9669 3.86993 26.8846C3.90926 26.8023 3.92967 26.7122 3.92967 26.621C3.92967 26.5298 3.90926 26.4397 3.86993 26.3574C3.83061 26.2751 3.77336 26.2027 3.70239 26.1454C2.99508 25.5753 2.44309 24.8359 2.09754 23.9958H5.67826V33.1272C5.67826 33.6129 6.41368 33.6137 6.41368 33.1272V30.0388H7.80269C7.97477 30.9182 8.75027 31.5841 9.67928 31.5841C10.734 31.5841 11.5923 30.7261 11.5923 29.6711C11.5923 28.6162 10.7342 27.7581 9.67928 27.7581C8.75027 27.7581 7.97459 28.4241 7.80269 29.3034H6.41368V23.9958H13.6147C14.1004 23.9958 14.1011 23.2604 13.6147 23.2604H1.85834C1.1005 20.2297 3.06185 17.2746 5.97794 16.6608C6.64478 16.5207 6.42912 15.8406 6.40706 15.4858H10.3406V18.1981C9.46123 18.3702 8.79531 19.1459 8.79531 20.0747C8.79531 21.1295 9.65335 21.9877 10.7083 21.9877C11.7633 21.9877 12.6213 21.1297 12.6213 20.0747C12.6213 19.1457 11.9554 18.37 11.076 18.1981V11.1851C11.8195 11.2926 12.0124 11.5397 12.3784 11.2783C12.4582 11.2211 12.5232 11.1456 12.5681 11.0583C12.613 10.971 12.6364 10.8742 12.6364 10.776C12.6356 9.77251 13.1133 8.86465 13.8708 8.30775V20.8491C13.8708 21.3349 14.6062 21.3356 14.6062 20.8491V7.91265C15.2489 7.68081 16.0073 7.65158 16.7095 7.90364V27.8881C16.7095 27.9856 16.7482 28.0792 16.8172 28.1481C16.8861 28.2171 16.9796 28.2558 17.0772 28.2558C17.1747 28.2558 17.2682 28.2171 17.3372 28.1481C17.4061 28.0792 17.4449 27.9856 17.4449 27.8881V13.0872C17.5019 13.0872 23.7319 13.0887 23.7887 13.0844V24.717ZM20.4194 19.2768C19.7701 19.2768 19.2419 18.7486 19.2419 18.0992C19.2419 17.4499 19.7701 16.9216 20.4194 16.9216C21.0688 16.9216 21.597 17.4499 21.597 18.0992C21.597 18.7486 21.0688 19.2768 20.4194 19.2768ZM11.076 36.559C11.076 37.2084 10.5478 37.7366 9.89843 37.7366C9.24906 37.7366 8.72085 37.2084 8.72085 36.559C8.72085 35.9096 9.24924 35.3814 9.89843 35.3814C10.5476 35.3814 11.076 35.9096 11.076 36.559ZM8.50206 29.6711C8.50206 29.0218 9.03027 28.4936 9.67964 28.4936C10.329 28.4936 10.8572 29.0218 10.8572 29.6711C10.8572 30.3205 10.329 30.8487 9.67964 30.8487C9.03027 30.8487 8.50206 30.3205 8.50206 29.6711ZM23.7887 12.3544C23.7319 12.3501 17.5019 12.3516 17.4449 12.3516V8.29102C17.6927 8.46844 17.8334 8.66664 18.1608 8.62619C18.2464 8.61573 18.3289 8.58739 18.4029 8.54302C18.4769 8.49865 18.5407 8.43923 18.5903 8.36861C20.213 6.05721 23.7887 7.25777 23.7887 10.099V12.3544ZM42.3349 36.5814C42.0055 36.6506 41.7937 36.9607 41.8523 37.2873C42.0295 38.2681 41.8405 39.28 41.3212 40.1307C40.7924 39.9932 38.16 40.5282 38.1723 37.0622C38.174 36.5765 37.4385 36.573 37.4369 37.0596C37.4284 39.4407 38.4964 40.7062 40.777 40.8399C40.238 41.404 39.5488 41.8019 38.7908 41.9865C38.0328 42.1712 37.2378 42.1348 36.4998 41.8817C36.0953 41.7435 35.6761 42.0408 35.6763 42.466C35.6782 45.1858 32.5337 46.4292 30.629 44.7636C30.6035 44.7424 30.5764 44.7233 30.5479 44.7065C30.6253 42.6278 31.6383 41.9496 33.5977 41.9297C34.0761 41.9297 34.1033 41.1943 33.5708 41.1943C31.1131 41.1943 29.871 42.3443 29.8116 44.7732C29.6277 44.9412 28.9298 46.1534 27.2722 46.0903C25.7569 46.0328 24.524 44.7107 24.524 43.1433V38.208C26.1253 39.5536 27.7397 39.4727 29.4214 37.777C29.7634 37.4321 29.242 36.9135 28.8993 37.2593C27.3595 38.8116 26.0742 38.7651 24.5786 37.2591C24.5618 37.2424 24.5436 37.2273 24.524 37.2141V24.102C25.048 24.179 25.5825 24.1443 26.0922 24.0003C26.602 23.8564 27.0756 23.6063 27.482 23.2666C28.9811 24.5122 31.1973 24.4175 32.5837 23.0309C32.9281 22.6869 32.4068 22.1673 32.0638 22.511C30.9553 23.6192 29.2014 23.6954 28.0025 22.7423C29.2133 21.2536 29.1265 19.0534 27.7418 17.6686C27.3985 17.325 26.8776 17.8448 27.2218 18.1886C29.3165 20.2834 27.4744 23.8845 24.524 23.3574V10.099C24.524 7.26089 28.0984 6.0561 29.7224 8.36861C29.7718 8.43923 29.8354 8.49865 29.9093 8.54301C29.9831 8.58736 30.0655 8.61565 30.151 8.62602C30.2366 8.63639 30.3233 8.62862 30.4056 8.60321C30.488 8.5778 30.564 8.53533 30.6288 8.47855C32.6058 6.75052 35.678 8.17998 35.6761 10.8547C35.6761 11.0383 35.7655 11.2108 35.9157 11.316C36.3886 11.648 36.6702 11.0439 38.1298 11.1512C38.531 11.1815 38.9253 11.2715 39.2999 11.4184C39.2659 13.5369 38.2881 14.3341 36.274 14.3341C35.7489 14.3341 35.7484 15.0695 36.2738 15.0695C38.5271 15.0695 39.8674 14.1002 40.0224 11.7826C41.4243 12.6789 42.1457 14.3207 41.8521 15.9548C41.7935 16.2813 42.0053 16.5913 42.3347 16.6606C46.7303 17.5859 48.1699 23.2662 44.6101 26.1454C44.5391 26.2027 44.4819 26.2751 44.4426 26.3574C44.4032 26.4397 44.3828 26.5298 44.3828 26.621C44.3828 26.7122 44.4032 26.8023 44.4426 26.8846C44.4819 26.9669 44.5391 27.0393 44.6101 27.0966C48.1736 29.9785 46.7268 35.6568 42.3349 36.5814Z" fill="#491352"/>
<path d="M33.4873 30.1937C33.4873 29.708 32.7519 29.7072 32.7519 30.1937C32.7519 31.4072 31.7648 32.3943 30.5513 32.3943C29.3379 32.3943 28.3508 31.4072 28.3508 30.1937C28.3508 29.708 27.6154 29.7072 27.6154 30.1937C27.6154 31.6954 28.7494 32.9357 30.2057 33.1074C30.3774 34.5637 31.6177 35.6977 33.1194 35.6977C33.6051 35.6977 33.6059 34.9623 33.1194 34.9623C32.0212 34.9623 31.111 34.1528 30.9475 33.0995C32.3792 32.9052 33.4873 31.678 33.4873 30.1937ZM31.9056 9.65106C31.9056 9.16532 31.1702 9.16459 31.1702 9.65106C31.1702 10.8645 30.1831 11.8516 28.9696 11.8516C27.7562 11.8516 26.7691 10.8645 26.7691 9.65106C26.7691 9.16532 26.0337 9.16459 26.0337 9.65106C26.0337 11.1528 27.1677 12.3931 28.624 12.5648C28.7957 14.0211 30.036 15.1551 31.5377 15.1551C32.0234 15.1551 32.0242 14.4197 31.5377 14.4197C30.4395 14.4197 29.5293 13.6102 29.3658 12.5569C30.7977 12.3623 31.9056 11.1351 31.9056 9.65106ZM42.7623 25.9475C43.2481 25.9475 43.2488 25.212 42.7623 25.212C41.2606 25.212 40.0203 26.346 39.8486 27.8023C37.4284 28.0879 36.7248 31.0838 37.626 31.0838C37.7235 31.0838 37.8171 31.045 37.886 30.9761C37.955 30.9071 37.9937 30.8136 37.9937 30.7161C37.9937 29.6179 38.8032 28.7076 39.8565 28.5442C40.051 29.9759 41.2784 31.0838 42.7625 31.0838C43.2482 31.0838 43.249 30.3483 42.7625 30.3483C41.5491 30.3483 40.562 29.3612 40.562 28.1478C40.562 26.9344 41.5491 25.9475 42.7623 25.9475ZM44.6904 20.4688C45.0323 20.1239 44.5109 19.6052 44.1682 19.9511C42.6285 21.5033 41.3431 21.4568 39.8475 19.9509C39.5057 19.606 38.9828 20.1239 39.3257 20.469C41.1082 22.2639 42.8612 22.3132 44.6904 20.4688ZM37.961 21.1917C35.4587 21.1917 34.1569 22.3522 34.1677 24.9852C34.1697 25.4716 34.905 25.4681 34.9031 24.982C34.8941 22.79 35.8474 21.9269 37.9325 21.9269C38.4657 21.9269 38.4372 21.1934 37.961 21.1917Z" fill="#491352"/>
</g>
</g>
<path d="M58.5696 33.1198V20.9651H61.3825V33.1198H58.5696ZM70.1535 33.3282C69.2043 33.3282 68.3187 33.1719 67.4968 32.8594C66.6865 32.5468 65.9804 32.1069 65.3784 31.5397C64.788 30.9725 64.325 30.3069 63.9893 29.5429C63.6652 28.7788 63.5031 27.9454 63.5031 27.0424C63.5031 26.1395 63.6652 25.306 63.9893 24.542C64.325 23.778 64.7938 23.1124 65.3958 22.5452C65.9977 21.978 66.7039 21.5381 67.5142 21.2255C68.3245 20.913 69.2043 20.7567 70.1535 20.7567C71.1143 20.7567 71.9941 20.913 72.7928 21.2255C73.6031 21.5381 74.3035 21.978 74.8939 22.5452C75.4958 23.1008 75.9646 23.7607 76.3003 24.5247C76.6361 25.2887 76.8039 26.1279 76.8039 27.0424C76.8039 27.9454 76.6361 28.7846 76.3003 29.5602C75.9646 30.3242 75.4958 30.9899 74.8939 31.5571C74.3035 32.1127 73.6031 32.5468 72.7928 32.8594C71.9941 33.1719 71.1143 33.3282 70.1535 33.3282ZM74.1299 35.9154C73.6552 35.9154 73.2038 35.8633 72.7755 35.7592C72.3587 35.655 71.942 35.4871 71.5253 35.2556C71.1201 35.0241 70.6918 34.7115 70.2403 34.3179C69.8004 33.9244 69.32 33.4382 68.7991 32.8594L71.751 32.1127C72.0635 32.541 72.3529 32.8825 72.6192 33.1372C72.8854 33.3919 73.1401 33.5713 73.3832 33.6755C73.6379 33.7797 73.9041 33.8318 74.1819 33.8318C74.9228 33.8318 75.5826 33.5308 76.1614 32.9288L77.4116 34.4221C76.5897 35.4177 75.4958 35.9154 74.1299 35.9154ZM70.1535 30.932C70.6976 30.932 71.1953 30.8394 71.6468 30.6542C72.1098 30.4689 72.515 30.2027 72.8623 29.8554C73.2096 29.5081 73.4758 29.0972 73.661 28.6226C73.8578 28.1364 73.9562 27.6097 73.9562 27.0424C73.9562 26.4636 73.8578 25.9369 73.661 25.4623C73.4758 24.9877 73.2096 24.5768 72.8623 24.2295C72.515 23.8822 72.1098 23.616 71.6468 23.4307C71.1953 23.2455 70.6976 23.1529 70.1535 23.1529C69.6094 23.1529 69.1059 23.2455 68.6428 23.4307C68.1798 23.616 67.7746 23.8822 67.4274 24.2295C67.0917 24.5768 66.8254 24.9877 66.6286 25.4623C66.4434 25.9369 66.3508 26.4636 66.3508 27.0424C66.3508 27.6097 66.4434 28.1364 66.6286 28.6226C66.8254 29.0972 67.0917 29.5081 67.4274 29.8554C67.7746 30.2027 68.1798 30.4689 68.6428 30.6542C69.1059 30.8394 69.6094 30.932 70.1535 30.932ZM89.6524 33.3282C88.7148 33.3282 87.8408 33.1777 87.0305 32.8767C86.2317 32.5642 85.5372 32.1243 84.9468 31.5571C84.3564 30.9899 83.8934 30.3242 83.5577 29.5602C83.2335 28.7962 83.0715 27.9569 83.0715 27.0424C83.0715 26.1279 83.2335 25.2887 83.5577 24.5247C83.8934 23.7607 84.3564 23.095 84.9468 22.5278C85.5487 21.9606 86.2491 21.5265 87.0478 21.2255C87.8466 20.913 88.7206 20.7567 89.6698 20.7567C90.7232 20.7567 91.6724 20.9419 92.5175 21.3123C93.3741 21.6712 94.0918 22.2037 94.6706 22.9098L92.8648 24.5768C92.448 24.1021 91.985 23.7491 91.4756 23.5176C90.9663 23.2745 90.4106 23.1529 89.8087 23.1529C89.2415 23.1529 88.7206 23.2455 88.2459 23.4307C87.7713 23.616 87.3604 23.8822 87.0131 24.2295C86.6658 24.5768 86.3938 24.9877 86.197 25.4623C86.0118 25.9369 85.9192 26.4636 85.9192 27.0424C85.9192 27.6212 86.0118 28.148 86.197 28.6226C86.3938 29.0972 86.6658 29.5081 87.0131 29.8554C87.3604 30.2027 87.7713 30.4689 88.2459 30.6542C88.7206 30.8394 89.2415 30.932 89.8087 30.932C90.4106 30.932 90.9663 30.8162 91.4756 30.5847C91.985 30.3416 92.448 29.977 92.8648 29.4908L94.6706 31.1577C94.0918 31.8638 93.3741 32.4021 92.5175 32.7726C91.6724 33.143 90.7174 33.3282 89.6524 33.3282ZM100.502 33.2587C99.5067 33.2587 98.6211 33.0504 97.8455 32.6336C97.0815 32.2169 96.4737 31.6497 96.0223 30.932C95.5824 30.2027 95.3625 29.375 95.3625 28.4489C95.3625 27.5113 95.5824 26.6836 96.0223 25.9659C96.4737 25.2366 97.0815 24.6694 97.8455 24.2642C98.6211 23.8475 99.5067 23.6391 100.502 23.6391C101.486 23.6391 102.366 23.8475 103.142 24.2642C103.917 24.6694 104.525 25.2308 104.965 25.9485C105.405 26.6662 105.625 27.4997 105.625 28.4489C105.625 29.375 105.405 30.2027 104.965 30.932C104.525 31.6497 103.917 32.2169 103.142 32.6336C102.366 33.0504 101.486 33.2587 100.502 33.2587ZM100.502 31.0362C100.954 31.0362 101.359 30.932 101.718 30.7236C102.077 30.5152 102.36 30.2201 102.569 29.838C102.777 29.4445 102.881 28.9814 102.881 28.4489C102.881 27.9049 102.777 27.4418 102.569 27.0598C102.36 26.6778 102.077 26.3826 101.718 26.1742C101.359 25.9659 100.954 25.8617 100.502 25.8617C100.051 25.8617 99.6456 25.9659 99.2867 26.1742C98.9279 26.3826 98.6385 26.6778 98.4185 27.0598C98.2101 27.4418 98.106 27.9049 98.106 28.4489C98.106 28.9814 98.2101 29.4445 98.4185 29.838C98.6385 30.2201 98.9279 30.5152 99.2867 30.7236C99.6456 30.932 100.051 31.0362 100.502 31.0362ZM111.446 33.2587C110.566 33.2587 109.774 33.062 109.067 32.6684C108.361 32.2632 107.8 31.7018 107.383 30.9841C106.978 30.2664 106.775 29.4213 106.775 28.4489C106.775 27.465 106.978 26.6141 107.383 25.8964C107.8 25.1787 108.361 24.6231 109.067 24.2295C109.774 23.8359 110.566 23.6391 111.446 23.6391C112.233 23.6391 112.922 23.8127 113.513 24.16C114.103 24.5073 114.56 25.034 114.884 25.7401C115.208 26.4463 115.37 27.3492 115.37 28.4489C115.37 29.5371 115.214 30.44 114.902 31.1577C114.589 31.8638 114.138 32.3905 113.547 32.7378C112.968 33.0851 112.268 33.2587 111.446 33.2587ZM111.915 31.0362C112.355 31.0362 112.754 30.932 113.113 30.7236C113.472 30.5152 113.756 30.2201 113.964 29.838C114.184 29.4445 114.294 28.9814 114.294 28.4489C114.294 27.9049 114.184 27.4418 113.964 27.0598C113.756 26.6778 113.472 26.3826 113.113 26.1742C112.754 25.9659 112.355 25.8617 111.915 25.8617C111.464 25.8617 111.058 25.9659 110.7 26.1742C110.341 26.3826 110.051 26.6778 109.831 27.0598C109.623 27.4418 109.519 27.9049 109.519 28.4489C109.519 28.9814 109.623 29.4445 109.831 29.838C110.051 30.2201 110.341 30.5152 110.7 30.7236C111.058 30.932 111.464 31.0362 111.915 31.0362ZM114.363 33.1198V31.2098L114.415 28.4316L114.242 25.6707V20.2358H116.951V33.1198H114.363ZM124.094 33.2587C123.029 33.2587 122.091 33.0504 121.281 32.6336C120.482 32.2169 119.863 31.6497 119.423 30.932C118.983 30.2027 118.763 29.375 118.763 28.4489C118.763 27.5113 118.977 26.6836 119.406 25.9659C119.845 25.2366 120.442 24.6694 121.194 24.2642C121.947 23.8475 122.797 23.6391 123.747 23.6391C124.661 23.6391 125.483 23.8359 126.212 24.2295C126.953 24.6115 127.538 25.1671 127.966 25.8964C128.394 26.6141 128.608 27.4765 128.608 28.4837C128.608 28.5878 128.603 28.7094 128.591 28.8483C128.58 28.9756 128.568 29.0972 128.556 29.2129H120.968V27.6328H127.133L126.091 28.1016C126.091 27.6155 125.992 27.1929 125.796 26.8341C125.599 26.4752 125.327 26.1974 124.979 26.0006C124.632 25.7922 124.227 25.6881 123.764 25.6881C123.301 25.6881 122.89 25.7922 122.531 26.0006C122.184 26.1974 121.912 26.481 121.715 26.8514C121.518 27.2103 121.42 27.6386 121.42 28.1364V28.5531C121.42 29.0625 121.53 29.5139 121.75 29.9075C121.981 30.2895 122.3 30.5847 122.705 30.7931C123.121 30.9899 123.608 31.0883 124.163 31.0883C124.661 31.0883 125.095 31.013 125.466 30.8625C125.848 30.712 126.195 30.4863 126.507 30.1853L127.949 31.7481C127.52 32.2343 126.982 32.6105 126.334 32.8767C125.686 33.1314 124.939 33.2587 124.094 33.2587Z" fill="white" fill-opacity="0.92"/>
<defs>
<clipPath id="clip0_81_1459">
<rect width="47.0664" height="47.0664" fill="white" transform="translate(0.624146 3.08659)"/>
</clipPath>
<clipPath id="clip1_81_1459">
<rect width="47.0664" height="47.0664" fill="white" transform="translate(0.624146 3.08659)"/>
</clipPath>
</defs>
</svg>
