<svg width="185" height="44" viewBox="0 0 185 44" fill="none" xmlns="http://www.w3.org/2000/svg">
<circle cx="22" cy="22" r="22" fill="url(#paint0_linear_42_327)"/>
<path d="M59.614 28.216C58.618 28.216 57.694 28.054 56.842 27.73C56.002 27.406 55.27 26.95 54.646 26.362C54.034 25.774 53.554 25.084 53.206 24.292C52.87 23.5 52.702 22.636 52.702 21.7C52.702 20.764 52.87 19.9 53.206 19.108C53.554 18.316 54.04 17.626 54.664 17.038C55.288 16.45 56.02 15.994 56.86 15.67C57.7 15.346 58.612 15.184 59.596 15.184C60.592 15.184 61.504 15.346 62.332 15.67C63.172 15.994 63.898 16.45 64.51 17.038C65.134 17.626 65.62 18.316 65.968 19.108C66.316 19.888 66.49 20.752 66.49 21.7C66.49 22.636 66.316 23.506 65.968 24.31C65.62 25.102 65.134 25.792 64.51 26.38C63.898 26.956 63.172 27.406 62.332 27.73C61.504 28.054 60.598 28.216 59.614 28.216ZM59.596 25.732C60.16 25.732 60.676 25.636 61.144 25.444C61.624 25.252 62.044 24.976 62.404 24.616C62.764 24.256 63.04 23.83 63.232 23.338C63.436 22.846 63.538 22.3 63.538 21.7C63.538 21.1 63.436 20.554 63.232 20.062C63.04 19.57 62.764 19.144 62.404 18.784C62.056 18.424 61.642 18.148 61.162 17.956C60.682 17.764 60.16 17.668 59.596 17.668C59.032 17.668 58.51 17.764 58.03 17.956C57.562 18.148 57.148 18.424 56.788 18.784C56.428 19.144 56.146 19.57 55.942 20.062C55.75 20.554 55.654 21.1 55.654 21.7C55.654 22.288 55.75 22.834 55.942 23.338C56.146 23.83 56.422 24.256 56.77 24.616C57.13 24.976 57.55 25.252 58.03 25.444C58.51 25.636 59.032 25.732 59.596 25.732ZM74.2075 28.144C73.3915 28.144 72.6775 27.964 72.0655 27.604C71.4535 27.244 70.9735 26.698 70.6255 25.966C70.2895 25.222 70.1215 24.286 70.1215 23.158C70.1215 22.018 70.2835 21.082 70.6075 20.35C70.9315 19.618 71.3995 19.072 72.0115 18.712C72.6235 18.352 73.3555 18.172 74.2075 18.172C75.1195 18.172 75.9355 18.382 76.6555 18.802C77.3875 19.21 77.9635 19.786 78.3835 20.53C78.8155 21.274 79.0315 22.15 79.0315 23.158C79.0315 24.178 78.8155 25.06 78.3835 25.804C77.9635 26.548 77.3875 27.124 76.6555 27.532C75.9355 27.94 75.1195 28.144 74.2075 28.144ZM68.4835 31.492V18.316H71.1655V20.296L71.1115 23.176L71.2915 26.038V31.492H68.4835ZM73.7215 25.84C74.1895 25.84 74.6035 25.732 74.9635 25.516C75.3355 25.3 75.6295 24.994 75.8455 24.598C76.0735 24.19 76.1875 23.71 76.1875 23.158C76.1875 22.594 76.0735 22.114 75.8455 21.718C75.6295 21.322 75.3355 21.016 74.9635 20.8C74.6035 20.584 74.1895 20.476 73.7215 20.476C73.2535 20.476 72.8335 20.584 72.4615 20.8C72.0895 21.016 71.7955 21.322 71.5795 21.718C71.3635 22.114 71.2555 22.594 71.2555 23.158C71.2555 23.71 71.3635 24.19 71.5795 24.598C71.7955 24.994 72.0895 25.3 72.4615 25.516C72.8335 25.732 73.2535 25.84 73.7215 25.84ZM85.7172 28.144C84.6132 28.144 83.6412 27.928 82.8012 27.496C81.9732 27.064 81.3312 26.476 80.8752 25.732C80.4192 24.976 80.1912 24.118 80.1912 23.158C80.1912 22.186 80.4132 21.328 80.8572 20.584C81.3132 19.828 81.9312 19.24 82.7112 18.82C83.4912 18.388 84.3732 18.172 85.3572 18.172C86.3052 18.172 87.1572 18.376 87.9132 18.784C88.6812 19.18 89.2872 19.756 89.7312 20.512C90.1752 21.256 90.3972 22.15 90.3972 23.194C90.3972 23.302 90.3912 23.428 90.3792 23.572C90.3672 23.704 90.3552 23.83 90.3432 23.95H82.4772V22.312H88.8672L87.7872 22.798C87.7872 22.294 87.6852 21.856 87.4812 21.484C87.2772 21.112 86.9952 20.824 86.6352 20.62C86.2752 20.404 85.8552 20.296 85.3752 20.296C84.8952 20.296 84.4692 20.404 84.0972 20.62C83.7372 20.824 83.4552 21.118 83.2512 21.502C83.0472 21.874 82.9452 22.318 82.9452 22.834V23.266C82.9452 23.794 83.0592 24.262 83.2872 24.67C83.5272 25.066 83.8572 25.372 84.2772 25.588C84.7092 25.792 85.2132 25.894 85.7892 25.894C86.3052 25.894 86.7552 25.816 87.1392 25.66C87.5352 25.504 87.8952 25.27 88.2192 24.958L89.7132 26.578C89.2692 27.082 88.7112 27.472 88.0392 27.748C87.3672 28.012 86.5932 28.144 85.7172 28.144ZM98.1527 18.172C98.9207 18.172 99.6047 18.328 100.205 18.64C100.817 18.94 101.297 19.408 101.645 20.044C101.993 20.668 102.167 21.472 102.167 22.456V28H99.3587V22.888C99.3587 22.108 99.1847 21.532 98.8367 21.16C98.5007 20.788 98.0207 20.602 97.3967 20.602C96.9527 20.602 96.5507 20.698 96.1907 20.89C95.8427 21.07 95.5667 21.352 95.3627 21.736C95.1707 22.12 95.0747 22.612 95.0747 23.212V28H92.2667V18.316H94.9487V20.998L94.4447 20.188C94.7927 19.54 95.2907 19.042 95.9387 18.694C96.5867 18.346 97.3247 18.172 98.1527 18.172ZM104.91 28V15.4H107.322L114.756 24.472H113.586V15.4H116.466V28H114.072L106.62 18.928H107.79V28H104.91ZM124.055 28.144C122.951 28.144 121.979 27.928 121.139 27.496C120.311 27.064 119.669 26.476 119.213 25.732C118.757 24.976 118.529 24.118 118.529 23.158C118.529 22.186 118.751 21.328 119.195 20.584C119.651 19.828 120.269 19.24 121.049 18.82C121.829 18.388 122.711 18.172 123.695 18.172C124.643 18.172 125.495 18.376 126.251 18.784C127.019 19.18 127.625 19.756 128.069 20.512C128.513 21.256 128.735 22.15 128.735 23.194C128.735 23.302 128.729 23.428 128.717 23.572C128.705 23.704 128.693 23.83 128.681 23.95H120.815V22.312H127.205L126.125 22.798C126.125 22.294 126.023 21.856 125.819 21.484C125.615 21.112 125.333 20.824 124.973 20.62C124.613 20.404 124.193 20.296 123.713 20.296C123.233 20.296 122.807 20.404 122.435 20.62C122.075 20.824 121.793 21.118 121.589 21.502C121.385 21.874 121.283 22.318 121.283 22.834V23.266C121.283 23.794 121.397 24.262 121.625 24.67C121.865 25.066 122.195 25.372 122.615 25.588C123.047 25.792 123.551 25.894 124.127 25.894C124.643 25.894 125.093 25.816 125.477 25.66C125.873 25.504 126.233 25.27 126.557 24.958L128.051 26.578C127.607 27.082 127.049 27.472 126.377 27.748C125.705 28.012 124.931 28.144 124.055 28.144ZM132.643 28L129.151 18.316H131.797L134.695 26.65H133.435L136.459 18.316H138.835L141.769 26.65H140.509L143.497 18.316H145.981L142.471 28H139.753L137.179 20.854H138.007L135.343 28H132.643ZM150.404 28.144C149.576 28.144 148.778 28.048 148.01 27.856C147.254 27.652 146.654 27.4 146.21 27.1L147.146 25.084C147.59 25.36 148.112 25.588 148.712 25.768C149.324 25.936 149.924 26.02 150.512 26.02C151.16 26.02 151.616 25.942 151.88 25.786C152.156 25.63 152.294 25.414 152.294 25.138C152.294 24.91 152.186 24.742 151.97 24.634C151.766 24.514 151.49 24.424 151.142 24.364C150.794 24.304 150.41 24.244 149.99 24.184C149.582 24.124 149.168 24.046 148.748 23.95C148.328 23.842 147.944 23.686 147.596 23.482C147.248 23.278 146.966 23.002 146.75 22.654C146.546 22.306 146.444 21.856 146.444 21.304C146.444 20.692 146.618 20.152 146.966 19.684C147.326 19.216 147.842 18.85 148.514 18.586C149.186 18.31 149.99 18.172 150.926 18.172C151.586 18.172 152.258 18.244 152.942 18.388C153.626 18.532 154.196 18.742 154.652 19.018L153.716 21.016C153.248 20.74 152.774 20.554 152.294 20.458C151.826 20.35 151.37 20.296 150.926 20.296C150.302 20.296 149.846 20.38 149.558 20.548C149.27 20.716 149.126 20.932 149.126 21.196C149.126 21.436 149.228 21.616 149.432 21.736C149.648 21.856 149.93 21.952 150.278 22.024C150.626 22.096 151.004 22.162 151.412 22.222C151.832 22.27 152.252 22.348 152.672 22.456C153.092 22.564 153.47 22.72 153.806 22.924C154.154 23.116 154.436 23.386 154.652 23.734C154.868 24.07 154.976 24.514 154.976 25.066C154.976 25.666 154.796 26.2 154.436 26.668C154.076 27.124 153.554 27.484 152.87 27.748C152.198 28.012 151.376 28.144 150.404 28.144Z" fill="white" fill-opacity="0.92"/>
<defs>
<linearGradient id="paint0_linear_42_327" x1="49.72" y1="-11" x2="-10.5853" y2="-6.54213" gradientUnits="userSpaceOnUse">
<stop offset="0.049626" stop-color="#FFC75D"/>
<stop offset="0.37424" stop-color="#D63154"/>
<stop offset="0.702143" stop-color="#F84033"/>
<stop offset="1" stop-color="#8F42AC"/>
</linearGradient>
</defs>
</svg>
