<svg width="20" height="20" viewBox="0 0 20 20" fill="none" xmlns="http://www.w3.org/2000/svg">
<g clip-path="url(#clip0_15_1187)">
<path d="M10.0001 18.3332C5.39758 18.3332 1.66675 14.6023 1.66675 9.99984C1.66675 5.39734 5.39758 1.6665 10.0001 1.6665C14.6026 1.6665 18.3334 5.39734 18.3334 9.99984C18.3334 14.6023 14.6026 18.3332 10.0001 18.3332ZM7.40842 10.9748L7.41925 10.969L8.14425 13.3607C8.23758 13.6198 8.36591 13.6665 8.52175 13.6448C8.67841 13.624 8.76091 13.5398 8.86341 13.4415L9.85342 12.4848L11.9784 14.0582C12.3667 14.2723 12.6459 14.1615 12.7426 13.6982L14.1234 7.17984C14.2759 6.57317 14.0092 6.32984 13.5384 6.52317L5.42758 9.6565C4.87425 9.87817 4.87758 10.1882 5.32758 10.3257L7.40842 10.9757V10.9748Z" fill="url(#paint0_linear_15_1187)"/>
</g>
<defs>
<linearGradient id="paint0_linear_15_1187" x1="1.00006" y1="-0.000122128" x2="10.0001" y2="18.3332" gradientUnits="userSpaceOnUse">
<stop stop-color="#FDE400" stop-opacity="0.69"/>
<stop offset="1" stop-color="#D752ED"/>
</linearGradient>
<clipPath id="clip0_15_1187">
<rect width="20" height="20" fill="white"/>
</clipPath>
</defs>
</svg>
